<mxfile host="app.diagrams.net" modified="2020-08-04T14:46:03.674Z" agent="5.0 (Macintosh)" etag="3rSXgDvIPuc5A23wCaS3" version="13.5.9" type="github">
  <diagram id="bMK4_oS5zttdrzBTjhSP" name="Page-1">
    <mxGraphModel dx="2066" dy="1140" grid="1" gridSize="10" guides="1" tooltips="1" connect="1" arrows="1" fold="1" page="1" pageScale="1" pageWidth="3300" pageHeight="4681" math="0" shadow="0">
      <root>
        <mxCell id="0" />
        <mxCell id="1" parent="0" />
        <mxCell id="6ab31ILjAaoCSHGeXfo--127" value="" style="rounded=1;whiteSpace=wrap;html=1;fillColor=none;" parent="1" vertex="1">
          <mxGeometry x="177" y="100" width="1483" height="280" as="geometry" />
        </mxCell>
        <mxCell id="6ab31ILjAaoCSHGeXfo--37" value="" style="ellipse;whiteSpace=wrap;html=1;fillColor=none;" parent="1" vertex="1">
          <mxGeometry x="150" y="1270" width="970" height="160" as="geometry" />
        </mxCell>
        <mxCell id="6ab31ILjAaoCSHGeXfo--1" value="unreal engine" style="pointerEvents=1;shadow=0;dashed=0;html=1;strokeColor=none;fillColor=#505050;labelPosition=center;verticalLabelPosition=bottom;verticalAlign=top;outlineConnect=0;align=center;shape=mxgraph.office.servers.server_generic;" parent="1" vertex="1">
          <mxGeometry x="180" y="1070" width="27" height="52" as="geometry" />
        </mxCell>
        <mxCell id="6ab31ILjAaoCSHGeXfo--5" style="edgeStyle=orthogonalEdgeStyle;rounded=0;orthogonalLoop=1;jettySize=auto;html=1;exitX=0.55;exitY=0.95;exitDx=0;exitDy=0;exitPerimeter=0;entryX=0.5;entryY=0;entryDx=0;entryDy=0;" parent="1" source="6ab31ILjAaoCSHGeXfo--2" target="6ab31ILjAaoCSHGeXfo--3" edge="1">
          <mxGeometry relative="1" as="geometry" />
        </mxCell>
        <mxCell id="6ab31ILjAaoCSHGeXfo--2" value="WWW" style="ellipse;shape=cloud;whiteSpace=wrap;html=1;" parent="1" vertex="1">
          <mxGeometry x="630" y="770" width="120" height="80" as="geometry" />
        </mxCell>
        <mxCell id="6ab31ILjAaoCSHGeXfo--6" style="edgeStyle=orthogonalEdgeStyle;rounded=0;orthogonalLoop=1;jettySize=auto;html=1;exitX=0.5;exitY=1;exitDx=0;exitDy=0;entryX=0.526;entryY=0.019;entryDx=0;entryDy=0;entryPerimeter=0;" parent="1" source="6ab31ILjAaoCSHGeXfo--3" target="6ab31ILjAaoCSHGeXfo--4" edge="1">
          <mxGeometry relative="1" as="geometry" />
        </mxCell>
        <mxCell id="6ab31ILjAaoCSHGeXfo--3" value="" style="image;html=1;image=img/lib/clip_art/networking/Router_Icon_128x128.png" parent="1" vertex="1">
          <mxGeometry x="650" y="870" width="80" height="80" as="geometry" />
        </mxCell>
        <mxCell id="6ab31ILjAaoCSHGeXfo--4" value="" style="points=[];aspect=fixed;html=1;align=center;shadow=0;dashed=0;image;image=img/lib/allied_telesis/switch/Switch_48_port_L3.svg;" parent="1" vertex="1">
          <mxGeometry x="820" y="1070" width="78" height="52.8" as="geometry" />
        </mxCell>
        <mxCell id="6ab31ILjAaoCSHGeXfo--7" value="vMix" style="pointerEvents=1;shadow=0;dashed=0;html=1;strokeColor=none;fillColor=#505050;labelPosition=center;verticalLabelPosition=bottom;verticalAlign=top;outlineConnect=0;align=center;shape=mxgraph.office.servers.server_generic;" parent="1" vertex="1">
          <mxGeometry x="600" y="1070" width="27" height="52" as="geometry" />
        </mxCell>
        <mxCell id="6ab31ILjAaoCSHGeXfo--8" value="10G" style="points=[];aspect=fixed;html=1;align=center;shadow=0;dashed=0;image;image=img/lib/allied_telesis/switch/Switch_48_port_L3.svg;" parent="1" vertex="1">
          <mxGeometry x="360" y="1070" width="78" height="52.8" as="geometry" />
        </mxCell>
        <mxCell id="6ab31ILjAaoCSHGeXfo--9" value="" style="endArrow=classic;startArrow=classic;html=1;" parent="1" edge="1">
          <mxGeometry width="50" height="50" relative="1" as="geometry">
            <mxPoint x="460" y="1096" as="sourcePoint" />
            <mxPoint x="590" y="1096" as="targetPoint" />
          </mxGeometry>
        </mxCell>
        <mxCell id="6ab31ILjAaoCSHGeXfo--11" value="" style="endArrow=classic;startArrow=classic;html=1;" parent="1" edge="1">
          <mxGeometry width="50" height="50" relative="1" as="geometry">
            <mxPoint x="220" y="1090" as="sourcePoint" />
            <mxPoint x="350" y="1090" as="targetPoint" />
          </mxGeometry>
        </mxCell>
        <mxCell id="6ab31ILjAaoCSHGeXfo--12" value="" style="points=[];aspect=fixed;html=1;align=center;shadow=0;dashed=0;image;image=img/lib/allied_telesis/computer_and_terminals/Laptop.svg;" parent="1" vertex="1">
          <mxGeometry x="530" y="1310" width="42" height="42.599999999999994" as="geometry" />
        </mxCell>
        <mxCell id="6ab31ILjAaoCSHGeXfo--13" value="POWERPOINT 2" style="points=[];aspect=fixed;html=1;align=center;shadow=0;dashed=0;image;image=img/lib/allied_telesis/security/DVS_Surveillance_Monitor.svg;" parent="1" vertex="1">
          <mxGeometry x="580" y="1310" width="42" height="60" as="geometry" />
        </mxCell>
        <mxCell id="6ab31ILjAaoCSHGeXfo--14" value="AUDIENCE GRID SOURCE" style="points=[];aspect=fixed;html=1;align=center;shadow=0;dashed=0;image;image=img/lib/allied_telesis/computer_and_terminals/Laptop.svg;" parent="1" vertex="1">
          <mxGeometry x="730" y="1310" width="42" height="42.599999999999994" as="geometry" />
        </mxCell>
        <mxCell id="6ab31ILjAaoCSHGeXfo--16" value="AUDIENCE FULL SCREEN SOURCE" style="points=[];aspect=fixed;html=1;align=center;shadow=0;dashed=0;image;image=img/lib/allied_telesis/computer_and_terminals/Laptop.svg;" parent="1" vertex="1">
          <mxGeometry x="920" y="1310" width="42" height="42.599999999999994" as="geometry" />
        </mxCell>
        <mxCell id="6ab31ILjAaoCSHGeXfo--17" value="decimator" style="rhombus;whiteSpace=wrap;html=1;" parent="1" vertex="1">
          <mxGeometry x="711" y="1390" width="80" height="30" as="geometry" />
        </mxCell>
        <mxCell id="6ab31ILjAaoCSHGeXfo--18" value="&lt;div&gt;MAC MAGIC GRABBER&lt;/div&gt;&lt;div&gt;&lt;br&gt;&lt;/div&gt;" style="points=[];aspect=fixed;html=1;align=center;shadow=0;dashed=0;image;image=img/lib/allied_telesis/computer_and_terminals/Laptop.svg;" parent="1" vertex="1">
          <mxGeometry x="728" y="1500" width="42" height="42.599999999999994" as="geometry" />
        </mxCell>
        <mxCell id="6ab31ILjAaoCSHGeXfo--19" value="SDI-IO" style="rounded=1;whiteSpace=wrap;html=1;" parent="1" vertex="1">
          <mxGeometry x="711" y="1440" width="79" height="40" as="geometry" />
        </mxCell>
        <mxCell id="6ab31ILjAaoCSHGeXfo--25" value="&lt;div&gt;DANTE &lt;br&gt;&lt;/div&gt;&lt;div&gt;INOUT&lt;br&gt;&lt;/div&gt;" style="shape=flexArrow;endArrow=classic;html=1;" parent="1" edge="1">
          <mxGeometry width="50" height="50" relative="1" as="geometry">
            <mxPoint x="398" y="980" as="sourcePoint" />
            <mxPoint x="290" y="890" as="targetPoint" />
          </mxGeometry>
        </mxCell>
        <mxCell id="6ab31ILjAaoCSHGeXfo--26" value="" style="points=[];aspect=fixed;html=1;align=center;shadow=0;dashed=0;image;image=img/lib/allied_telesis/computer_and_terminals/Laptop.svg;" parent="1" vertex="1">
          <mxGeometry x="390" y="1310" width="42" height="42.599999999999994" as="geometry" />
        </mxCell>
        <mxCell id="6ab31ILjAaoCSHGeXfo--27" value="POWERPOINT 1" style="points=[];aspect=fixed;html=1;align=center;shadow=0;dashed=0;image;image=img/lib/allied_telesis/security/DVS_Surveillance_Monitor.svg;" parent="1" vertex="1">
          <mxGeometry x="440" y="1310" width="42" height="60" as="geometry" />
        </mxCell>
        <mxCell id="6ab31ILjAaoCSHGeXfo--28" value="" style="points=[];aspect=fixed;html=1;align=center;shadow=0;dashed=0;image;image=img/lib/allied_telesis/computer_and_terminals/Laptop.svg;" parent="1" vertex="1">
          <mxGeometry x="240" y="1310" width="42" height="42.599999999999994" as="geometry" />
        </mxCell>
        <mxCell id="6ab31ILjAaoCSHGeXfo--29" value="KEYNOTE" style="points=[];aspect=fixed;html=1;align=center;shadow=0;dashed=0;image;image=img/lib/allied_telesis/security/DVS_Surveillance_Monitor.svg;" parent="1" vertex="1">
          <mxGeometry x="297" y="1310" width="42" height="60" as="geometry" />
        </mxCell>
        <mxCell id="6ab31ILjAaoCSHGeXfo--31" value="" style="endArrow=classic;startArrow=classic;html=1;" parent="1" edge="1">
          <mxGeometry width="50" height="50" relative="1" as="geometry">
            <mxPoint x="661" y="1095.5" as="sourcePoint" />
            <mxPoint x="791" y="1095.5" as="targetPoint" />
          </mxGeometry>
        </mxCell>
        <mxCell id="6ab31ILjAaoCSHGeXfo--32" value="" style="points=[];aspect=fixed;html=1;align=center;shadow=0;dashed=0;image;image=img/lib/allied_telesis/security/DVS_Surveillance_Monitor.svg;" parent="1" vertex="1">
          <mxGeometry x="550" y="1000" width="42" height="60" as="geometry" />
        </mxCell>
        <mxCell id="6ab31ILjAaoCSHGeXfo--33" value="" style="points=[];aspect=fixed;html=1;align=center;shadow=0;dashed=0;image;image=img/lib/allied_telesis/security/DVS_Surveillance_Monitor.svg;" parent="1" vertex="1">
          <mxGeometry x="622" y="1010" width="42" height="60" as="geometry" />
        </mxCell>
        <mxCell id="6ab31ILjAaoCSHGeXfo--34" value="" style="points=[];aspect=fixed;html=1;align=center;shadow=0;dashed=0;image;image=img/lib/allied_telesis/security/DVS_Surveillance_Monitor.svg;" parent="1" vertex="1">
          <mxGeometry x="130" y="990" width="42" height="60" as="geometry" />
        </mxCell>
        <mxCell id="6ab31ILjAaoCSHGeXfo--35" value="&lt;div&gt;&lt;br&gt;&lt;/div&gt;&lt;div&gt;&lt;br&gt;&lt;/div&gt;" style="points=[];aspect=fixed;html=1;align=center;shadow=0;dashed=0;image;image=img/lib/allied_telesis/security/DVS_Surveillance_Monitor.svg;" parent="1" vertex="1">
          <mxGeometry x="207" y="990" width="42" height="60" as="geometry" />
        </mxCell>
        <mxCell id="6ab31ILjAaoCSHGeXfo--38" value="&lt;div&gt;depending on roll&lt;/div&gt;&lt;div&gt;wired with extra port&lt;/div&gt;&lt;div&gt;or wifi&lt;br&gt;&lt;/div&gt;" style="shape=flexArrow;endArrow=classic;html=1;" parent="1" edge="1">
          <mxGeometry x="0.2531" y="-22" width="50" height="50" relative="1" as="geometry">
            <mxPoint x="650" y="1260" as="sourcePoint" />
            <mxPoint x="840" y="1150" as="targetPoint" />
            <mxPoint as="offset" />
          </mxGeometry>
        </mxCell>
        <mxCell id="6ab31ILjAaoCSHGeXfo--41" value="&lt;div&gt;content network&lt;/div&gt;" style="text;html=1;strokeColor=none;fillColor=none;align=center;verticalAlign=middle;whiteSpace=wrap;rounded=0;" parent="1" vertex="1">
          <mxGeometry x="563" y="1280" width="101" height="20" as="geometry" />
        </mxCell>
        <mxCell id="6ab31ILjAaoCSHGeXfo--42" value="&lt;div&gt;TIMER SOFTWARE&lt;/div&gt;&lt;div&gt;AUTOMATION&lt;/div&gt;&lt;div&gt;SLIDO-CTRL&lt;/div&gt;&lt;div&gt;UNITY INTERCOM SERVER&lt;/div&gt;&lt;div&gt;DANTE&lt;br&gt;&lt;/div&gt;&lt;div&gt;&lt;br&gt;&lt;/div&gt;" style="points=[];aspect=fixed;html=1;align=center;shadow=0;dashed=0;image;image=img/lib/allied_telesis/computer_and_terminals/Laptop.svg;" parent="1" vertex="1">
          <mxGeometry x="990" y="1120" width="42" height="42.599999999999994" as="geometry" />
        </mxCell>
        <mxCell id="6ab31ILjAaoCSHGeXfo--43" value="&lt;div&gt;OPERATOR 1&lt;/div&gt;&lt;div&gt;&lt;br&gt;&lt;/div&gt;" style="shape=umlActor;verticalLabelPosition=bottom;verticalAlign=top;html=1;outlineConnect=0;fillColor=none;" parent="1" vertex="1">
          <mxGeometry x="1010" y="1620" width="30" height="60" as="geometry" />
        </mxCell>
        <mxCell id="6ab31ILjAaoCSHGeXfo--55" value="" style="points=[];aspect=fixed;html=1;align=center;shadow=0;dashed=0;image;image=img/lib/allied_telesis/security/DVS_Surveillance_Monitor.svg;" parent="1" vertex="1">
          <mxGeometry x="1040" y="1060" width="42" height="60" as="geometry" />
        </mxCell>
        <mxCell id="6ab31ILjAaoCSHGeXfo--57" value="&lt;div&gt;OPERATOR 3&lt;br&gt;&lt;/div&gt;&lt;div&gt;&lt;br&gt;&lt;/div&gt;" style="shape=umlActor;verticalLabelPosition=bottom;verticalAlign=top;html=1;outlineConnect=0;fillColor=none;" parent="1" vertex="1">
          <mxGeometry x="1270" y="1620" width="30" height="60" as="geometry" />
        </mxCell>
        <mxCell id="6ab31ILjAaoCSHGeXfo--58" value="&lt;div&gt;OPERATOR 2&lt;br&gt;&lt;/div&gt;" style="shape=umlActor;verticalLabelPosition=bottom;verticalAlign=top;html=1;outlineConnect=0;fillColor=none;" parent="1" vertex="1">
          <mxGeometry x="1150" y="1620" width="30" height="60" as="geometry" />
        </mxCell>
        <mxCell id="6ab31ILjAaoCSHGeXfo--62" value="&lt;div&gt;AUDIOMIXER&lt;/div&gt;&lt;div&gt;DANTE&lt;br&gt;&lt;/div&gt;" style="shape=process;whiteSpace=wrap;html=1;backgroundOutline=1;fillColor=none;" parent="1" vertex="1">
          <mxGeometry x="130" y="810" width="120" height="60" as="geometry" />
        </mxCell>
        <mxCell id="6ab31ILjAaoCSHGeXfo--63" value="&lt;div&gt;onboard 1GB ports&lt;/div&gt;&lt;div&gt;to content network&lt;br&gt;&lt;/div&gt;" style="shape=flexArrow;endArrow=classic;html=1;" parent="1" edge="1">
          <mxGeometry width="50" height="50" relative="1" as="geometry">
            <mxPoint x="515" y="1240" as="sourcePoint" />
            <mxPoint x="407" y="1150" as="targetPoint" />
          </mxGeometry>
        </mxCell>
        <mxCell id="6ab31ILjAaoCSHGeXfo--64" value="" style="endArrow=classic;html=1;entryX=0.476;entryY=1.033;entryDx=0;entryDy=0;entryPerimeter=0;" parent="1" target="6ab31ILjAaoCSHGeXfo--28" edge="1">
          <mxGeometry width="50" height="50" relative="1" as="geometry">
            <mxPoint x="150" y="1480" as="sourcePoint" />
            <mxPoint x="190" y="1500" as="targetPoint" />
          </mxGeometry>
        </mxCell>
        <mxCell id="6ab31ILjAaoCSHGeXfo--65" value="misschien vermijden " style="text;html=1;strokeColor=none;fillColor=none;align=center;verticalAlign=middle;whiteSpace=wrap;rounded=0;" parent="1" vertex="1">
          <mxGeometry x="110" y="1500" width="40" height="20" as="geometry" />
        </mxCell>
        <mxCell id="6ab31ILjAaoCSHGeXfo--66" value="" style="line;strokeWidth=1;rotatable=0;dashed=0;labelPosition=right;align=left;verticalAlign=middle;spacingTop=0;spacingLeft=6;points=[];portConstraint=eastwest;fillColor=none;" parent="1" vertex="1">
          <mxGeometry x="190" y="670" width="1490" height="10" as="geometry" />
        </mxCell>
        <mxCell id="6ab31ILjAaoCSHGeXfo--67" value="&lt;div&gt;host&lt;/div&gt;" style="shape=umlActor;verticalLabelPosition=bottom;verticalAlign=top;html=1;outlineConnect=0;fillColor=none;" parent="1" vertex="1">
          <mxGeometry x="252" y="190" width="30" height="60" as="geometry" />
        </mxCell>
        <mxCell id="6ab31ILjAaoCSHGeXfo--68" value="&lt;div&gt;soft&lt;/div&gt;&lt;div&gt;box&lt;br&gt;&lt;/div&gt;" style="rounded=1;whiteSpace=wrap;html=1;fillColor=none;" parent="1" vertex="1">
          <mxGeometry x="190" y="150" width="50" height="30" as="geometry" />
        </mxCell>
        <mxCell id="6ab31ILjAaoCSHGeXfo--72" value="" style="points=[];aspect=fixed;html=1;align=center;shadow=0;dashed=0;image;image=img/lib/allied_telesis/security/DVS_Surveillance_Monitor.svg;fillColor=none;" parent="1" vertex="1">
          <mxGeometry x="440" y="150" width="42" height="60" as="geometry" />
        </mxCell>
        <mxCell id="6ab31ILjAaoCSHGeXfo--74" value="intel NUC" style="points=[];aspect=fixed;html=1;align=center;shadow=0;dashed=0;image;image=img/lib/allied_telesis/computer_and_terminals/Personal_Computer_with_Server.svg;fillColor=none;" parent="1" vertex="1">
          <mxGeometry x="375.6" y="127.6" width="62.400000000000006" height="62.400000000000006" as="geometry" />
        </mxCell>
        <mxCell id="6ab31ILjAaoCSHGeXfo--75" value="" style="rounded=1;whiteSpace=wrap;html=1;fillColor=none;" parent="1" vertex="1">
          <mxGeometry x="671" y="140" width="339" height="220" as="geometry" />
        </mxCell>
        <mxCell id="6ab31ILjAaoCSHGeXfo--76" value="" style="rounded=1;whiteSpace=wrap;html=1;fillColor=none;" parent="1" vertex="1">
          <mxGeometry x="1035.5" y="140" width="339" height="220" as="geometry" />
        </mxCell>
        <mxCell id="6ab31ILjAaoCSHGeXfo--77" value="vMix&amp;nbsp; call rtn in chrome browser" style="text;html=1;strokeColor=none;fillColor=none;align=center;verticalAlign=middle;whiteSpace=wrap;rounded=0;" parent="1" vertex="1">
          <mxGeometry x="671" y="148.8" width="200" height="20" as="geometry" />
        </mxCell>
        <mxCell id="6ab31ILjAaoCSHGeXfo--79" value="PGM" style="rounded=1;whiteSpace=wrap;html=1;fillColor=none;" parent="1" vertex="1">
          <mxGeometry x="820" y="180" width="170" height="100" as="geometry" />
        </mxCell>
        <mxCell id="6ab31ILjAaoCSHGeXfo--80" value="TIMER 1" style="text;html=1;strokeColor=none;fillColor=none;align=center;verticalAlign=middle;whiteSpace=wrap;rounded=0;" parent="1" vertex="1">
          <mxGeometry x="710" y="330" width="70" height="20" as="geometry" />
        </mxCell>
        <mxCell id="6ab31ILjAaoCSHGeXfo--81" value="TIMER 1" style="text;html=1;strokeColor=none;fillColor=none;align=center;verticalAlign=middle;whiteSpace=wrap;rounded=0;" parent="1" vertex="1">
          <mxGeometry x="830" y="330" width="70" height="20" as="geometry" />
        </mxCell>
        <mxCell id="6ab31ILjAaoCSHGeXfo--86" value="" style="fontColor=#0066CC;verticalAlign=top;verticalLabelPosition=bottom;labelPosition=center;align=center;html=1;outlineConnect=0;fillColor=#CCCCCC;strokeColor=#6881B3;gradientColor=none;gradientDirection=north;strokeWidth=2;shape=mxgraph.networks.user_male;" parent="1" vertex="1">
          <mxGeometry x="694.1" y="190" width="14" height="40" as="geometry" />
        </mxCell>
        <mxCell id="6ab31ILjAaoCSHGeXfo--91" value="zoom grid audience in normal interface" style="text;html=1;strokeColor=none;fillColor=none;align=center;verticalAlign=middle;whiteSpace=wrap;rounded=0;" parent="1" vertex="1">
          <mxGeometry x="1050" y="150" width="250" height="20" as="geometry" />
        </mxCell>
        <mxCell id="6ab31ILjAaoCSHGeXfo--92" value="" style="rounded=1;whiteSpace=wrap;html=1;fillColor=none;" parent="1" vertex="1">
          <mxGeometry x="683.9000000000001" y="180" width="122.2" height="140" as="geometry" />
        </mxCell>
        <mxCell id="6ab31ILjAaoCSHGeXfo--93" value="&lt;div&gt;7x vMix call in group no raise hands functionality&lt;br&gt;&lt;/div&gt;" style="text;html=1;strokeColor=none;fillColor=none;align=center;verticalAlign=middle;whiteSpace=wrap;rounded=0;" parent="1" vertex="1">
          <mxGeometry x="684.9000000000001" y="287" width="118" height="20" as="geometry" />
        </mxCell>
        <mxCell id="6ab31ILjAaoCSHGeXfo--95" value="" style="fontColor=#0066CC;verticalAlign=top;verticalLabelPosition=bottom;labelPosition=center;align=center;html=1;outlineConnect=0;fillColor=#CCCCCC;strokeColor=#6881B3;gradientColor=none;gradientDirection=north;strokeWidth=2;shape=mxgraph.networks.user_male;" parent="1" vertex="1">
          <mxGeometry x="714.1" y="190" width="14" height="40" as="geometry" />
        </mxCell>
        <mxCell id="6ab31ILjAaoCSHGeXfo--96" value="" style="fontColor=#0066CC;verticalAlign=top;verticalLabelPosition=bottom;labelPosition=center;align=center;html=1;outlineConnect=0;fillColor=#CCCCCC;strokeColor=#6881B3;gradientColor=none;gradientDirection=north;strokeWidth=2;shape=mxgraph.networks.user_male;" parent="1" vertex="1">
          <mxGeometry x="735.9000000000001" y="190" width="14" height="40" as="geometry" />
        </mxCell>
        <mxCell id="6ab31ILjAaoCSHGeXfo--97" value="" style="fontColor=#0066CC;verticalAlign=top;verticalLabelPosition=bottom;labelPosition=center;align=center;html=1;outlineConnect=0;fillColor=#CCCCCC;strokeColor=#6881B3;gradientColor=none;gradientDirection=north;strokeWidth=2;shape=mxgraph.networks.user_male;" parent="1" vertex="1">
          <mxGeometry x="755.9000000000001" y="190" width="14" height="40" as="geometry" />
        </mxCell>
        <mxCell id="6ab31ILjAaoCSHGeXfo--98" value="" style="fontColor=#0066CC;verticalAlign=top;verticalLabelPosition=bottom;labelPosition=center;align=center;html=1;outlineConnect=0;fillColor=#CCCCCC;strokeColor=#6881B3;gradientColor=none;gradientDirection=north;strokeWidth=2;shape=mxgraph.networks.user_male;" parent="1" vertex="1">
          <mxGeometry x="694.1" y="240" width="14" height="40" as="geometry" />
        </mxCell>
        <mxCell id="6ab31ILjAaoCSHGeXfo--99" value="" style="fontColor=#0066CC;verticalAlign=top;verticalLabelPosition=bottom;labelPosition=center;align=center;html=1;outlineConnect=0;fillColor=#CCCCCC;strokeColor=#6881B3;gradientColor=none;gradientDirection=north;strokeWidth=2;shape=mxgraph.networks.user_male;" parent="1" vertex="1">
          <mxGeometry x="714.1" y="240" width="14" height="40" as="geometry" />
        </mxCell>
        <mxCell id="6ab31ILjAaoCSHGeXfo--100" value="" style="fontColor=#0066CC;verticalAlign=top;verticalLabelPosition=bottom;labelPosition=center;align=center;html=1;outlineConnect=0;fillColor=#CCCCCC;strokeColor=#6881B3;gradientColor=none;gradientDirection=north;strokeWidth=2;shape=mxgraph.networks.user_male;" parent="1" vertex="1">
          <mxGeometry x="735.9000000000001" y="240" width="14" height="40" as="geometry" />
        </mxCell>
        <mxCell id="6ab31ILjAaoCSHGeXfo--102" value="" style="rounded=1;whiteSpace=wrap;html=1;fillColor=none;" parent="1" vertex="1">
          <mxGeometry x="1060" y="148.8" width="250" height="131.2" as="geometry" />
        </mxCell>
        <mxCell id="6ab31ILjAaoCSHGeXfo--103" value="unity intercom interace" style="rounded=1;whiteSpace=wrap;html=1;fillColor=none;" parent="1" vertex="1">
          <mxGeometry x="1070" y="300" width="200" height="40" as="geometry" />
        </mxCell>
        <mxCell id="6ab31ILjAaoCSHGeXfo--104" value="&lt;div&gt;PRESENTER&lt;/div&gt;&lt;div&gt;&lt;br&gt;&lt;/div&gt;" style="shape=umlActor;verticalLabelPosition=bottom;verticalAlign=top;html=1;outlineConnect=0;fillColor=none;" parent="1" vertex="1">
          <mxGeometry x="267" y="486.2" width="30" height="60" as="geometry" />
        </mxCell>
        <mxCell id="6ab31ILjAaoCSHGeXfo--108" value="" style="rounded=1;whiteSpace=wrap;html=1;fillColor=none;" parent="1" vertex="1">
          <mxGeometry x="651.65" y="412.4" width="339" height="220" as="geometry" />
        </mxCell>
        <mxCell id="6ab31ILjAaoCSHGeXfo--109" value="" style="rounded=1;whiteSpace=wrap;html=1;fillColor=none;" parent="1" vertex="1">
          <mxGeometry x="1016.15" y="412.4" width="339" height="220" as="geometry" />
        </mxCell>
        <mxCell id="6ab31ILjAaoCSHGeXfo--110" value="vMix&amp;nbsp; call rtn in chrome browser" style="text;html=1;strokeColor=none;fillColor=none;align=center;verticalAlign=middle;whiteSpace=wrap;rounded=0;" parent="1" vertex="1">
          <mxGeometry x="651.65" y="421.2" width="200" height="20" as="geometry" />
        </mxCell>
        <mxCell id="6ab31ILjAaoCSHGeXfo--111" value="&lt;div&gt;POWERPOINT&lt;/div&gt;&lt;div&gt;PRESENTERVIEW&lt;br&gt;&lt;/div&gt;" style="rounded=1;whiteSpace=wrap;html=1;fillColor=none;" parent="1" vertex="1">
          <mxGeometry x="658.9" y="442.4" width="221.1" height="147.6" as="geometry" />
        </mxCell>
        <mxCell id="6ab31ILjAaoCSHGeXfo--112" value="TIMER 1" style="text;html=1;strokeColor=none;fillColor=none;align=center;verticalAlign=middle;whiteSpace=wrap;rounded=0;" parent="1" vertex="1">
          <mxGeometry x="690.65" y="602.4" width="70" height="20" as="geometry" />
        </mxCell>
        <mxCell id="6ab31ILjAaoCSHGeXfo--113" value="TIMER 1" style="text;html=1;strokeColor=none;fillColor=none;align=center;verticalAlign=middle;whiteSpace=wrap;rounded=0;" parent="1" vertex="1">
          <mxGeometry x="810.65" y="602.4" width="70" height="20" as="geometry" />
        </mxCell>
        <mxCell id="6ab31ILjAaoCSHGeXfo--115" value="zoom grid audience in normal interface" style="text;html=1;strokeColor=none;fillColor=none;align=center;verticalAlign=middle;whiteSpace=wrap;rounded=0;" parent="1" vertex="1">
          <mxGeometry x="1030.65" y="422.4" width="250" height="20" as="geometry" />
        </mxCell>
        <mxCell id="6ab31ILjAaoCSHGeXfo--124" value="" style="rounded=1;whiteSpace=wrap;html=1;fillColor=none;" parent="1" vertex="1">
          <mxGeometry x="1040.65" y="421.2" width="250" height="131.2" as="geometry" />
        </mxCell>
        <mxCell id="6ab31ILjAaoCSHGeXfo--128" value="geleverd door faber" style="text;html=1;strokeColor=none;fillColor=none;align=center;verticalAlign=middle;whiteSpace=wrap;rounded=0;" parent="1" vertex="1">
          <mxGeometry x="212" y="340" width="148" height="20" as="geometry" />
        </mxCell>
        <mxCell id="6ab31ILjAaoCSHGeXfo--129" value="" style="points=[];aspect=fixed;html=1;align=center;shadow=0;dashed=0;image;image=img/lib/allied_telesis/computer_and_terminals/Laptop.svg;" parent="1" vertex="1">
          <mxGeometry x="360.8" y="480" width="42" height="42.599999999999994" as="geometry" />
        </mxCell>
        <mxCell id="6ab31ILjAaoCSHGeXfo--130" value="OWN PC with EXTRA MONITOR" style="points=[];aspect=fixed;html=1;align=center;shadow=0;dashed=0;image;image=img/lib/allied_telesis/security/DVS_Surveillance_Monitor.svg;" parent="1" vertex="1">
          <mxGeometry x="410.8" y="480" width="42" height="60" as="geometry" />
        </mxCell>
        <mxCell id="6ab31ILjAaoCSHGeXfo--131" value="" style="ellipse;whiteSpace=wrap;html=1;fillColor=none;" parent="1" vertex="1">
          <mxGeometry x="960" y="320" width="30" height="28" as="geometry" />
        </mxCell>
        <mxCell id="6ab31ILjAaoCSHGeXfo--133" value="PGM" style="rounded=1;whiteSpace=wrap;html=1;fillColor=none;" parent="1" vertex="1">
          <mxGeometry x="890" y="442.4" width="90" height="57.6" as="geometry" />
        </mxCell>
        <mxCell id="6ab31ILjAaoCSHGeXfo--134" value="" style="image;html=1;image=img/lib/clip_art/networking/Ip_Camera_128x128.png;fillColor=none;" parent="1" vertex="1">
          <mxGeometry x="289" y="110" width="50" height="60" as="geometry" />
        </mxCell>
        <mxCell id="6ab31ILjAaoCSHGeXfo--135" value="tally" style="text;html=1;strokeColor=none;fillColor=none;align=center;verticalAlign=middle;whiteSpace=wrap;rounded=0;" parent="1" vertex="1">
          <mxGeometry x="955" y="300" width="40" height="20" as="geometry" />
        </mxCell>
        <mxCell id="6ab31ILjAaoCSHGeXfo--136" value="" style="shape=image;verticalLabelPosition=bottom;labelBackgroundColor=#ffffff;verticalAlign=top;aspect=fixed;imageAspect=0;image=data:image/png,iVBORw0KGgoAAAANSUhEUgAAAOEAAADhCAMAAAAJbSJIAAAAh1BMVEU2Njb///8zMzMvLy8oKCgsLCwuLi4nJyckJCQiIiL4+PgfHx/s7Oz8/PyoqKjx8fHf39/Y2NgYGBjMzMyCgoLl5eVXV1dra2tGRkbIyMg8PDxMTEyVlZW3t7ebm5tycnLAwMCMjIyDg4NhYWGwsLB4eHhUVFQTExNKSkqhoaFnZ2cHBwdBQUFgNlD+AAAKfklEQVR4nO2d2ZaqOhCGY0IARVRAnHBGtO3j+z/fQe3dY1JJME3KvfZ/0ze9gM8MValUKqTzt4u4/gCJeqvE0pMwEvaTNaWc9+w8DR/hfH1MOaUk7dt5HjLC/mBGPEqu6mZ2HomKMNt5wR2vljew81A8hHE2WXDyIX9v57lYCOPtJKWUfCYc23kyEsJRyRj5Kr6082gUhPk4/c5HSLi183AMhPOj94Pvb5pLh/uUCgD/HnvYfxU14JVwaOcFrglH4c8ReBf7O7y2+UXYQ6/GYh/beYVbwq0vAyTBwdI7nBIeqBSQeJaMhVPCLQBIJ5amUpeEcwCQsKmt17gjzBcAIPHOtt7jjLAPtSAhJ0u2wh1hr/IhQDqx9iZXhOsuBEi6tmZSZ4RJBALSYmTtVW4Ih1OZr3YXt7S+v8oN4QDuoyS114RuCHshDEgLiy9zQrjjMGFkafF7kwvCUQGaQsI21oxhxw3hQNFJ/bnNtzkgjEF3rR6FF6uvc0CYwbaQcFu7Tnc5INyA/hrxxpYW929qnzCH5xl6sRSB+qP2CVcB2ITpyvL7WieMYWPId7Zf2DrhkEGdlM5sBS/e1TrhCJpJqW/RIX1T64RLqJNS24Ow44BwAnTScPcLL2ybsAfYCq/6jTe2TZjJXTZvatPhflfbhAOpNeTl77yxbcKzZC+tBrRuJ+5qmVBq773Srjf6oZYJh6V4GAZTy97oh1omzIUhKMp/ZRa9q21CkUdD/fUvvrJlQpHPxhc2A08/1DLhz1g3O61/aRJ9U8uE269BKMrp1G7M4qcsEca1dP7v8Nng8/S4FKwl4tF8uxrsNuWxmJT75WC13Y4e8HYeJYyT83hcVZtaVTUenxMY9L6yoMznXjfdJ/mPfxgOxpsiDAOPM1rr+o9h2C2m1frn/+rpAcI8O5T/pZHn12JX1X+9KD0tlvNMNrTK0Au74eJ1vD/8aJY4mVdp6vmCJXJN6qXpTvpYSE0J48O+6AbCHSTKw6juXcKwbrUbbOdZIjDvya6iXTgKx7vl0rwlGxHGydjj8lSYK6XPOV+sk5HW6MyTKvA5jPf243mvinFghTDbnzS+5vo9EdmtVcauP9hdIq3n3cSisZn5NCccTali6+jrj04u5SHvC3/4uD9aFxfO4Sj/d/n01WQ8mhL2zoH+7/1GSYPoshusvn1WL6sb73buwFj8YuDmGRImE8Mf/A8l91gxmS6z/vCq0ba2dguv2bOujwv1HQUjwvggzZXU+SzKeDe9KQp92qTxPsS0Y+NGhBtw/mxXlI31HB0DwryURSDcyJtpGUd9wrzQn0LbEXvRiZBrE2aXB4bgL4nqpE7pEiYIAWvEhXq+0SRMZhgBr2ZD2Yp6hHmBE/DaiipELcLexNSPaU/UU7ipOoTxBtss+ll0Brs3OoQ7XHbwu9gCdMQ1COeYW/AqVkCIasJ8hsdVkyjcAatiNSHiWeZNvITcNyXhQZFm5178BfRPVYSJ9OgVFvEpvOJXEU6xTzPeURHSUBBuFXmEzuWNVRuPMOEQyg3BoECd3QATHnDbesIr9dYxSNh7LJby69LaGwcJ13CipGv5G524KUTYV+TUO5ZfamU3QIS4RyGb6eUxAoRDRU69W1GtMBRMqMqpd6uT7v4MQIh6FDLtTFQ5IZBF6F5c/+CQnHCNeJ6hM10+gLB/RNyEzOBklJRQcY7VqYzKD0kJFWd3XIr6Juk1UkKCt5Oa1VeSEc7xAvpm+eAyQvBYhFsxs7P6EsJehXWjwrjcgoRwhLeTRoZnaCWEeH1SqrdmUhKu0Q7DwLSsi4QQbRiYwuFffUK0nZQZn6wRE+Zo29C8mqKY8Ix2GJpX4hMT7rESso3x4SEx4Rir292gTp2QUFUgx50C82O0QsIR1m1fejE/XiMkzLDGuptU4hMSzhVFjpyJvRoDSgixmkO2sUS4wkrYpMa3kPCAdRw2qYAtJES7wG9SiV5IiNalsUaI1uBbI0Sbn2CNEG1A3xoh2n21f4TahHh7aYPqws810zSpkyUklBSvcK8m95Y8lz1sUuVbSAjXaXYo9mpe40VIqKqg6kzWVsBoPW/aoEjIc62erEWi0K6ArUUTt2gJmXnFs+eK0xAS2YnqZ1hjbYR0jasoiwnxJnyZxxOfK+Z93SE1tYhCwj5ax7R2vk1nUyEh4lwT4leGs+mT7a7VigzL1D7ZDikxX0GJCdE6prUoMZtrxIRot9eu4mbBGjFhjNfkX7dJjVJqJPk0qWsMSIFRIUkJIV6Tf1VooU6UtBguChmF3J4uN/EmarDUlxAmqNuQMIPLhCSEeDNq7gr1JxtZnjfacNtddPFwNTO8KbR3saNu5FRGmLtGUEn7OppnPFFyl+6hBCkh2sj+u056IRspIXKLSLRnGylhjvwsPrkWYtQx/FLCHuZ1/pso0WhF+RnSAW635iadnRo5If7KNLVoqpxugLPcaPMVPotS1R3sACHmo86fFJSN67XlqBf6H/IXYE4mQNhDHPn+Iurxg3zVD1X+UN2miUc0mEiXUxBhgjta80XUOy3FW4tgBZ4S9zL4myLxcAQJ8e52iyQJ98N1otB7358licDBtb4w71/8UCSeT2HC7IkGIl2IGWDC3uvzIIaSZCJFVUH5VXfYRGUV2hWE8cn1l+tKGulX1b5EHjf9EJX53yrC7ElMomye0ahBiz/mdlMkXewrCVdPsUqk8jqt6krJ+GNuBNzbVxM+wxoK2trXqOf9BBEpDuTYaNRkfwLnVOKS6hLij357UKBG5+YA7AaDXqBomw7hCHnQzQfPsGvd4IHcdYNzv7UIM9TbpcEO/Hi9e2YQF1EktIDT3PQIR4gXUYGiCoHmbUh4RyJVEeje94TWsYlUJ6E0CTsV0kb0lQWFdQmHSEOnkXKfW5ewc0YZk/LU5Vy0CXOMW8LAwtecsHNA2E91DtDoE3Ym6KLDsENqTojuRBvlVu+w7OBbCuvV1jchHHZRTTZcr/yACSGuO+YofGVeM8IYk2dDH80vFWqIJ3ch0D3CZkaI5w4vX7variEhlmWUQfkIU8IhDruf6pcTNiXsJCmCodg1qC5oTNjZuifkuicRmhF2xq63ahgxKR3RgLBTuo28SXMS7BH2jy5nG+ppH3lqTNgZLtwhUmJYZqgRocO8TGp4Q0lTQmdxfupbqquv1nzmoqNSYgzYmLCTNRqLlPr8Jr9JH6Dm9XceIOyMjqZGgwbdRbnfLWvtqokXeYaU8E6ofcJO/0U/cEMZ70Yvq2T0Z9Xay5NscIlCzrQxedf0epJHCeuFhuYOPw0Xm6Xw98+W1ayr1xdC5d3Gv0AYb0/qxRTjabFKpLsLcbLdRJFyWLLT2bxk4k0PEdY9dR+CEw71+FRySuCzsnHJAgCShq9NhuBNDxJ2OqtJJPs0yiI+0Jzeh/NBcfLEg5IG9GBciO5dDxN24tWEC0YS5fw4lXdOgXr9QXnk3vc+wYPjutkIvOtxwlqrKgroZ7Ewna1XDb6rvxps0qjr+YzVhtMLu2m6OzzCZ4mw/vkPk6J4mb1cVRRFuc0bf1avn8/P1WZT7ZfnVZb3G04w77JDeFfvpke/yLZsEuLUP8Ln1//IJsCM+672EQAAAABJRU5ErkJggg==;" parent="1" vertex="1">
          <mxGeometry x="780" y="1487.5" width="45" height="45" as="geometry" />
        </mxCell>
        <mxCell id="uklI1-ahxxjbaillRYCd-1" value="&lt;div&gt;streamer&lt;/div&gt;" style="points=[];aspect=fixed;html=1;align=center;shadow=0;dashed=0;image;image=img/lib/allied_telesis/computer_and_terminals/Laptop.svg;" vertex="1" parent="1">
          <mxGeometry x="714.1" y="1068.63" width="42.15" height="42.75" as="geometry" />
        </mxCell>
        <mxCell id="uklI1-ahxxjbaillRYCd-2" value="&lt;div&gt;CCGv5&lt;/div&gt;&lt;div&gt;as virtual router&lt;br&gt;&lt;/div&gt;" style="pointerEvents=1;shadow=0;dashed=0;html=1;strokeColor=none;fillColor=#505050;labelPosition=center;verticalLabelPosition=bottom;verticalAlign=top;outlineConnect=0;align=center;shape=mxgraph.office.servers.server_generic;" vertex="1" parent="1">
          <mxGeometry x="176.5" y="1160" width="27" height="52" as="geometry" />
        </mxCell>
        <mxCell id="uklI1-ahxxjbaillRYCd-3" value="" style="endArrow=classic;startArrow=classic;html=1;entryX=0;entryY=0.966;entryDx=0;entryDy=0;entryPerimeter=0;" edge="1" parent="1" target="6ab31ILjAaoCSHGeXfo--8">
          <mxGeometry width="50" height="50" relative="1" as="geometry">
            <mxPoint x="232" y="1200" as="sourcePoint" />
            <mxPoint x="282" y="1150" as="targetPoint" />
          </mxGeometry>
        </mxCell>
      </root>
    </mxGraphModel>
  </diagram>
</mxfile>
